<svg width="170" height="45" viewBox="0 0 170 45" fill="none" xmlns="http://www.w3.org/2000/svg">
<g clip-path="url(#clip0)">
<path d="M56.2675 40.8919C56.4121 40.8675 56.5568 40.8351 56.7015 40.8027C56.8461 40.7703 56.9988 40.7379 57.1515 40.6974C57.3685 40.5272 57.5453 40.349 57.6739 40.1464C57.8025 39.9439 57.907 39.6846 57.9793 39.3767C58.0597 39.0688 58.116 38.6961 58.1481 38.2586C58.1883 37.8211 58.2205 37.2863 58.2446 36.6463L58.4134 32.6113H64.6983C64.6983 33.9725 64.6983 35.3337 64.7064 36.6868C64.7144 38.0398 64.7144 39.3929 64.7144 40.7622H65.6306V44.3677H64.1679V42.2287H57.7463V44.3677H56.2675V40.8919ZM59.8681 34.1184C59.852 34.564 59.8279 34.9934 59.8118 35.4147C59.7957 35.836 59.7716 36.2655 59.7555 36.7111C59.7395 37.1324 59.7154 37.5456 59.6912 37.9426C59.6671 38.3396 59.635 38.7123 59.5868 39.0607C59.5385 39.4091 59.4742 39.7251 59.3858 40.0249C59.2974 40.3166 59.1849 40.5759 59.0402 40.7865H63.0507V34.1346H59.8681V34.1184Z" fill="#D3202E"/>
<path d="M68.2588 39.2632C68.2588 39.4738 68.2829 39.6764 68.3392 39.879C68.3954 40.0734 68.4838 40.2517 68.5963 40.4056C68.7169 40.5596 68.8616 40.6811 69.0464 40.7702C69.2313 40.8593 69.4402 40.908 69.6894 40.908C69.8903 40.908 70.1475 40.8593 70.4529 40.7621C70.7583 40.6649 71.0396 40.4947 71.2968 40.2598C71.4575 40.4461 71.6102 40.6244 71.7469 40.8026C71.8835 40.9809 72.0362 41.1672 72.1969 41.3455C71.8112 41.6939 71.4013 41.945 70.9512 42.0909C70.5011 42.2367 70.0671 42.3096 69.6331 42.3096C69.2795 42.3096 68.9178 42.261 68.5642 42.1557C68.2106 42.0504 67.8891 41.8721 67.6078 41.6128C67.3265 41.3536 67.0934 40.9971 66.9166 40.5514C66.7398 40.1058 66.6514 39.5306 66.6514 38.8338C66.6514 38.1694 66.7398 37.6184 66.9166 37.1728C67.0934 36.7272 67.3265 36.3626 67.6078 36.0871C67.8891 35.8116 68.2106 35.6172 68.5642 35.4956C68.9178 35.3741 69.2634 35.3174 69.617 35.3174C70.0752 35.3174 70.4851 35.3984 70.8467 35.5523C71.2084 35.7063 71.5138 35.9251 71.7629 36.2086C72.0121 36.4922 72.205 36.8325 72.3416 37.2376C72.4782 37.6427 72.5425 38.0965 72.5425 38.5907V39.2632H68.2588ZM69.601 36.7353C69.2473 36.7353 68.95 36.8568 68.7089 37.108C68.4677 37.3592 68.3311 37.7076 68.2829 38.1532H70.8869C70.8548 37.6832 70.7262 37.3267 70.485 37.0918C70.2439 36.8568 69.9546 36.7353 69.601 36.7353Z" fill="#D3202E"/>
<path d="M78.2327 42.2368V39.401H75.5483V42.2368H73.9972V35.3984H75.5483V38.1775H78.2327V35.3984H79.7517V42.2368H78.2327Z" fill="#D3202E"/>
<path d="M81.4396 42.2368V35.3984H82.9586V39.9438H82.9827C83.1836 39.6521 83.3845 39.3604 83.5855 39.0769C83.7864 38.7933 83.9873 38.5097 84.1883 38.218C84.5178 37.7481 84.8473 37.2782 85.1688 36.8082C85.4903 36.3383 85.8278 35.8684 86.1654 35.3984H87.4272V42.2368H85.876V37.9182H85.8519C85.6269 38.2747 85.3858 38.6231 85.1366 38.9472C84.8875 39.2713 84.6464 39.6116 84.4133 39.96L82.8139 42.2368H81.4396Z" fill="#D3202E"/>
<path d="M93.1174 42.0585C92.7156 42.2367 92.2816 42.3177 91.8154 42.3177C91.4055 42.3177 91.0117 42.2529 90.634 42.1152C90.2562 41.9774 89.9267 41.7749 89.6374 41.4913C89.348 41.2077 89.123 40.8512 88.9542 40.4056C88.7854 39.9681 88.7051 39.4333 88.7051 38.8176C88.7051 38.2018 88.7935 37.6751 88.9703 37.2295C89.1471 36.7839 89.3802 36.4274 89.6776 36.1357C89.9669 35.8521 90.3044 35.6415 90.6902 35.5118C91.076 35.3822 91.4698 35.3174 91.8717 35.3174C92.7799 35.3174 93.5514 35.6415 94.1863 36.2816L93.1897 37.3754C92.7879 36.954 92.3619 36.7434 91.9038 36.7434C91.3814 36.7434 90.9876 36.9054 90.7143 37.2376C90.4411 37.5698 90.3044 38.0965 90.3044 38.8095C90.3044 39.5225 90.4411 40.041 90.7063 40.3732C90.9796 40.7054 91.3734 40.8674 91.8877 40.8674C92.1128 40.8674 92.3459 40.8107 92.5709 40.6892C92.804 40.5677 93.0049 40.4137 93.2058 40.2193L94.2185 41.2969C93.889 41.629 93.5193 41.8802 93.1174 42.0585Z" fill="#D3202E"/>
<path d="M97.9397 35.334C98.3255 35.334 98.6871 35.3664 99.0247 35.4393C99.3622 35.5122 99.6596 35.6338 99.9168 35.8039C100.174 35.9822 100.375 36.209 100.528 36.5007C100.68 36.7924 100.753 37.157 100.753 37.5945V42.2371H99.2015V41.6294L99.1774 41.6132C98.9925 41.8482 98.7434 42.0265 98.4219 42.1399C98.1004 42.2533 97.7629 42.3019 97.4173 42.3019C96.6939 42.3019 96.1233 42.1237 95.7054 41.7672C95.2875 41.4107 95.0785 40.9002 95.0785 40.244C95.0785 39.9685 95.1267 39.7011 95.2312 39.458C95.3357 39.215 95.4803 38.9881 95.6652 38.8018C95.8581 38.6154 96.0992 38.4615 96.3805 38.3561C96.6698 38.2427 96.9994 38.1941 97.3771 38.1941H99.2095V37.6917C99.2095 37.5621 99.1854 37.4406 99.1452 37.319C99.1051 37.1975 99.0327 37.0922 98.9363 37.0112C98.8318 36.922 98.7032 36.8491 98.5264 36.8005C98.3496 36.7438 98.1326 36.7195 97.8674 36.7195C97.4896 36.7195 97.1762 36.7681 96.919 36.8653C96.6618 36.9625 96.4368 37.1003 96.2439 37.2866L95.4241 36.2333C95.7536 35.9011 96.1394 35.6662 96.5734 35.5365C97.0154 35.3988 97.4655 35.334 97.9397 35.334ZM96.5332 40.1386C96.5332 40.244 96.5493 40.3412 96.5975 40.4465C96.6377 40.5518 96.71 40.641 96.7984 40.7139C96.8949 40.7949 97.0154 40.8597 97.1681 40.9083C97.3208 40.957 97.5057 40.9813 97.7388 40.9813C97.9156 40.9813 98.0844 40.9651 98.2451 40.9326C98.4058 40.9002 98.5585 40.8435 98.6871 40.7706C98.8157 40.6977 98.9282 40.6005 99.0247 40.4789C99.1131 40.3574 99.1694 40.2115 99.1935 40.0252C99.2015 39.9685 99.2095 39.9037 99.2095 39.8145V39.377H97.6343C97.2405 39.377 96.9592 39.4499 96.7904 39.5958C96.6136 39.7497 96.5332 39.928 96.5332 40.1386Z" fill="#D3202E"/>
<path d="M106.121 42.2372V32.6279H107.777V36.6467H109.023C109.167 36.6467 109.328 36.6304 109.489 36.6061C109.658 36.5818 109.818 36.517 109.979 36.4198C110.14 36.3226 110.285 36.1848 110.413 35.9904C110.55 35.804 110.662 35.5528 110.759 35.2369L111.579 32.6522H113.194L112.334 35.4556C112.197 35.9255 112.013 36.3226 111.779 36.6386C111.546 36.9545 111.281 37.1652 110.976 37.2705C111.378 37.4002 111.691 37.627 111.908 37.9592C112.125 38.2914 112.302 38.6884 112.438 39.1584L113.355 42.2372H111.627L110.847 39.5716C110.743 39.2556 110.63 39.0044 110.502 38.8019C110.373 38.6074 110.236 38.4535 110.084 38.3481C109.931 38.2428 109.77 38.1699 109.601 38.1375C109.433 38.1051 109.256 38.0808 109.071 38.0808H107.753V42.2372H106.121Z" fill="#D3202E"/>
<path d="M117.068 35.334C117.454 35.334 117.815 35.3664 118.153 35.4393C118.49 35.5122 118.788 35.6338 119.045 35.8039C119.302 35.9822 119.503 36.209 119.656 36.5007C119.808 36.7924 119.881 37.157 119.881 37.5945V42.2371H118.33V41.6294L118.306 41.6132C118.121 41.8482 117.872 42.0265 117.55 42.1399C117.229 42.2533 116.891 42.3019 116.545 42.3019C115.822 42.3019 115.251 42.1237 114.834 41.7672C114.416 41.4107 114.207 40.9002 114.207 40.244C114.207 39.9685 114.255 39.7011 114.359 39.458C114.464 39.215 114.609 38.9881 114.793 38.8018C114.986 38.6154 115.227 38.4615 115.509 38.3561C115.798 38.2427 116.128 38.1941 116.505 38.1941H118.338V37.6917C118.338 37.5621 118.314 37.4406 118.273 37.319C118.233 37.1975 118.161 37.0922 118.064 37.0112C117.96 36.922 117.831 36.8491 117.655 36.8005C117.478 36.7438 117.261 36.7195 116.996 36.7195C116.618 36.7195 116.304 36.7681 116.047 36.8653C115.79 36.9625 115.565 37.1003 115.372 37.2866L114.552 36.2333C114.882 35.9011 115.268 35.6662 115.702 35.5365C116.136 35.3988 116.586 35.334 117.068 35.334ZM115.653 40.1386C115.653 40.244 115.669 40.3412 115.718 40.4465C115.758 40.5518 115.83 40.641 115.919 40.7139C116.015 40.7949 116.136 40.8597 116.288 40.9083C116.441 40.957 116.626 40.9813 116.859 40.9813C117.036 40.9813 117.204 40.9651 117.365 40.9326C117.526 40.9002 117.679 40.8435 117.807 40.7706C117.936 40.6977 118.048 40.6005 118.145 40.4789C118.233 40.3574 118.289 40.2115 118.314 40.0252C118.322 39.9685 118.33 39.9037 118.33 39.8145V39.377H116.754C116.361 39.377 116.079 39.4499 115.911 39.5958C115.734 39.7497 115.653 39.928 115.653 40.1386Z" fill="#D3202E"/>
<path d="M125.611 42.2368V36.7434H123.048V42.2368H121.504V35.3984H127.162V42.2368H125.611Z" fill="#D3202E"/>
<path d="M131.157 36.7515V38.5016C131.157 39.7575 130.964 40.6973 130.586 41.3293C130.208 41.9613 129.549 42.3097 128.609 42.3745C128.561 42.18 128.521 41.9856 128.472 41.7911C128.424 41.5967 128.384 41.4022 128.336 41.2078C128.617 41.1267 128.85 41.0295 129.035 40.9242C129.22 40.8189 129.365 40.6649 129.477 40.4705C129.59 40.276 129.662 40.0167 129.702 39.7007C129.742 39.3848 129.766 38.9796 129.766 38.4935V35.3984H134.685V42.2367H133.134V36.7515H131.157Z" fill="#D3202E"/>
<path d="M139.114 43.6148C138.921 44.1415 138.647 44.498 138.294 44.7005C137.94 44.895 137.554 45.0003 137.144 45.0003H136.566V43.6877H136.992C137.193 43.6877 137.361 43.6148 137.498 43.4771C137.635 43.3312 137.739 43.1692 137.812 42.9747L138.157 41.8971L135.666 35.4072H137.337L138.213 37.9189L138.88 40.0741H138.937L139.604 37.9513L140.464 35.4072H142.095L139.114 43.6148Z" fill="#D3202E"/>
<path d="M147.239 42.2368V39.401H144.555V42.2368H143.003V35.3984H144.555V38.1775H147.239V35.3984H148.758V42.2368H147.239Z" fill="#D3202E"/>
<path d="M153.275 35.3174C153.789 35.3174 154.247 35.4146 154.649 35.6172C155.059 35.8116 155.381 36.0952 155.63 36.4679C155.807 36.7353 155.935 37.0594 156.016 37.4402C156.096 37.821 156.136 38.2504 156.128 38.7203C156.128 39.247 156.088 39.6926 156.016 40.0653C155.935 40.438 155.823 40.7621 155.67 41.0376C155.405 41.4751 155.051 41.7992 154.601 42.0099C154.151 42.2286 153.661 42.3339 153.122 42.3339C152.608 42.3339 152.158 42.2448 151.756 42.0747C151.354 41.8964 151.033 41.629 150.783 41.2563C150.406 40.6973 150.229 39.8871 150.253 38.8257C150.253 38.453 150.277 38.1046 150.325 37.7724C150.373 37.4402 150.462 37.1485 150.59 36.8892C150.832 36.3869 151.177 35.998 151.651 35.7225C152.109 35.4551 152.656 35.3174 153.275 35.3174ZM153.219 36.7272C152.953 36.7272 152.712 36.8001 152.503 36.9378C152.294 37.0756 152.134 37.2619 152.021 37.505C151.941 37.6913 151.884 37.8939 151.852 38.1127C151.82 38.3314 151.796 38.5745 151.788 38.8419C151.788 39.1092 151.804 39.3523 151.828 39.5711C151.852 39.7898 151.909 39.9843 151.989 40.1544C152.093 40.3894 152.238 40.5839 152.447 40.7135C152.648 40.8431 152.881 40.916 153.146 40.916C153.444 40.916 153.701 40.835 153.934 40.673C154.167 40.5109 154.328 40.2679 154.432 39.9357C154.48 39.806 154.513 39.644 154.529 39.4495C154.545 39.2551 154.553 39.012 154.553 38.7203C154.553 38.1856 154.496 37.7886 154.376 37.5212C154.271 37.2538 154.119 37.0594 153.918 36.9297C153.701 36.792 153.476 36.7272 153.219 36.7272Z" fill="#D3202E"/>
<path d="M163.361 40.1626C163.361 40.4705 163.305 40.7459 163.185 40.9971C163.064 41.2483 162.903 41.467 162.694 41.6534C162.485 41.8397 162.244 41.9775 161.963 42.0828C161.682 42.1881 161.376 42.2368 161.047 42.2368H157.623V35.3984H160.814C161.617 35.3984 162.22 35.5767 162.614 35.9413C163.008 36.3059 163.209 36.7596 163.209 37.3106C163.209 37.5617 163.144 37.8129 163.008 38.0722C162.879 38.3315 162.638 38.534 162.292 38.6961C162.654 38.8176 162.927 39.0202 163.104 39.3037C163.273 39.5954 163.361 39.879 163.361 40.1626ZM161.617 37.4564C161.617 37.2458 161.537 37.0756 161.384 36.9379C161.232 36.8082 160.974 36.7353 160.629 36.7353H159.166V38.1856H160.629C161.015 38.1856 161.272 38.1127 161.408 37.9669C161.553 37.821 161.617 37.6509 161.617 37.4564ZM161.786 40.0978C161.786 39.8952 161.714 39.7169 161.561 39.563C161.408 39.4091 161.151 39.328 160.782 39.328H159.166V40.8594H160.782C161.151 40.8594 161.408 40.7864 161.561 40.6325C161.706 40.4786 161.786 40.3003 161.786 40.0978Z" fill="#D3202E"/>
<path d="M167.195 35.334C167.581 35.334 167.943 35.3664 168.28 35.4393C168.618 35.5041 168.915 35.6338 169.172 35.8039C169.429 35.9822 169.63 36.209 169.783 36.5007C169.936 36.7924 170.008 37.157 170.008 37.5945V42.2371H168.457V41.6294L168.433 41.6132C168.248 41.8482 167.999 42.0265 167.677 42.1399C167.356 42.2533 167.018 42.3019 166.673 42.3019C165.949 42.3019 165.379 42.1237 164.961 41.7672C164.543 41.4107 164.334 40.9002 164.334 40.244C164.334 39.9685 164.382 39.7011 164.487 39.458C164.591 39.215 164.736 38.9881 164.929 38.8018C165.121 38.6154 165.363 38.4615 165.644 38.3561C165.925 38.2508 166.263 38.1941 166.64 38.1941H168.473V37.6917C168.473 37.5621 168.449 37.4406 168.409 37.319C168.368 37.1975 168.296 37.0922 168.2 37.0112C168.095 36.922 167.959 36.8491 167.79 36.8005C167.613 36.7438 167.396 36.7195 167.131 36.7195C166.753 36.7195 166.44 36.7681 166.19 36.8653C165.933 36.9625 165.708 37.1003 165.515 37.2866L164.696 36.2333C165.025 35.9011 165.411 35.6662 165.845 35.5365C166.263 35.3988 166.721 35.334 167.195 35.334ZM165.781 40.1386C165.781 40.244 165.797 40.3412 165.845 40.4465C165.885 40.5518 165.957 40.641 166.046 40.7139C166.142 40.7949 166.263 40.8597 166.415 40.9083C166.568 40.957 166.753 40.9813 166.986 40.9813C167.163 40.9813 167.332 40.9651 167.492 40.9326C167.653 40.9002 167.806 40.8435 167.934 40.7706C168.063 40.6977 168.176 40.6005 168.272 40.4789C168.36 40.3574 168.417 40.2115 168.433 40.0252C168.441 39.9685 168.449 39.9037 168.449 39.8145V39.377H166.874C166.48 39.377 166.198 39.4499 166.03 39.5958C165.869 39.7497 165.781 39.928 165.781 40.1386Z" fill="#D3202E"/>
<path d="M44.1154 0H0V12.7044H44.1154V0Z" fill="#F15A61"/>
<path d="M44.1154 15.9131H0V28.3987H44.1154V15.9131Z" fill="#EF4552"/>
<path d="M44.1154 31.8174H0V44.384H44.1154V31.8174Z" fill="#D52839"/>
<path d="M68.7972 1.52344V11.311H57.4167V1.52344H59.5626V9.35833H62.0461V1.52344H64.2V9.35833H66.6835V1.52344H68.7972Z" fill="#161616"/>
<path d="M76.7299 6.26287C77.1237 6.3925 77.4211 6.62747 77.6461 6.96776C77.8631 7.30806 78.0399 7.70507 78.1685 8.175L79.1008 11.3106H76.9147L76.1753 8.82318C76.0709 8.5072 75.9583 8.24792 75.8217 8.04537C75.6851 7.84281 75.5484 7.68887 75.3957 7.57543C75.243 7.47011 75.0823 7.39718 74.9055 7.35667C74.7367 7.31616 74.5519 7.29996 74.367 7.29996H73.3302V11.3106H71.1843V1.50684H73.3302V5.42833H74.2947C74.4393 5.42833 74.6081 5.41213 74.7769 5.38782C74.9457 5.36352 75.1145 5.2987 75.2752 5.19337C75.4359 5.09614 75.5806 4.9503 75.7253 4.76395C75.8619 4.5776 75.9825 4.31832 76.0709 3.99423L76.8505 1.54735H78.9321L78.056 4.39935C77.9274 4.86117 77.7506 5.25008 77.5256 5.55797C77.3005 5.87396 77.0433 6.09272 76.746 6.21425L76.7299 6.26287Z" fill="#161616"/>
<path d="M84.0355 1.4502C84.6222 1.4502 85.1527 1.54742 85.6188 1.74188C86.085 1.93633 86.4868 2.20371 86.8163 2.5359C87.1459 2.87619 87.4031 3.27321 87.5799 3.74314C87.7567 4.21307 87.8451 4.71541 87.8451 5.26636V7.57551C87.8451 8.15887 87.7567 8.68552 87.5718 9.15545C87.387 9.62538 87.1378 10.0305 86.8003 10.3627C86.4708 10.6949 86.0689 10.9542 85.6028 11.1324C85.1366 11.3107 84.6062 11.3998 84.0355 11.3998C83.4006 11.3998 82.8541 11.2945 82.3799 11.0919C81.9137 10.8812 81.5199 10.6058 81.2065 10.2574C80.893 9.90896 80.66 9.49575 80.5072 9.03392C80.3545 8.57209 80.2742 8.08595 80.2742 7.57551V5.26636C80.2742 4.75592 80.3545 4.27789 80.5072 3.81606C80.66 3.35423 80.893 2.94911 81.2065 2.60072C81.5199 2.25232 81.9057 1.96874 82.3799 1.76618C82.8541 1.55552 83.4006 1.4502 84.0355 1.4502ZM84.0195 3.47576C83.7462 3.47576 83.5131 3.52438 83.3202 3.6135C83.1273 3.70263 82.9586 3.82416 82.83 3.97C82.7014 4.12394 82.5969 4.29409 82.5326 4.48044C82.4683 4.6749 82.4361 4.86935 82.4361 5.06381V7.72135C82.4361 7.94011 82.4683 8.14267 82.5326 8.33712C82.5969 8.53158 82.6933 8.70983 82.83 8.85567C82.9586 9.00961 83.1193 9.13115 83.3202 9.22027C83.5131 9.3175 83.7542 9.35801 84.0195 9.35801C84.5419 9.35801 84.9437 9.20407 85.2331 8.88808C85.5143 8.57209 85.659 8.18318 85.659 7.71325V5.07191C85.659 4.64249 85.5143 4.26978 85.2331 3.9538C84.9437 3.63781 84.5419 3.47576 84.0195 3.47576Z" fill="#161616"/>
<path d="M97.2887 1.52344V11.311H95.1669V3.47608H92.8924V5.80954C92.8924 6.56305 92.8522 7.27605 92.7799 7.94854C92.7075 8.62103 92.5468 9.22059 92.2976 9.73104C92.0565 10.2496 91.7029 10.6628 91.2448 10.9788C90.7867 11.2948 90.1678 11.4649 89.3963 11.4892L89.1069 9.73104C89.5249 9.65001 89.8544 9.50417 90.0875 9.30161C90.3205 9.09906 90.4973 8.83979 90.6179 8.5238C90.7304 8.20781 90.8108 7.8351 90.8429 7.40568C90.8751 6.97626 90.8912 6.49013 90.8912 5.93107V1.52344H97.2887Z" fill="#161616"/>
<path d="M105.76 11.311L105.036 9.31782H101.781L101.058 11.311H98.7997L102.569 1.52344H104.257L108.026 11.311H105.76ZM104.008 6.36049L103.437 4.41595H103.381L102.818 6.32808L102.457 7.4786H104.369L104.008 6.36049Z" fill="#161616"/>
<path d="M62.9704 22.0702C63.3642 22.1998 63.6616 22.4348 63.8866 22.7751C64.1036 23.1154 64.2804 23.5124 64.409 23.9823L65.3413 27.1179H63.1552L62.4158 24.6305C62.3113 24.3145 62.1988 24.0553 62.0622 23.8527C61.9336 23.6501 61.7889 23.4962 61.6362 23.3909C61.4835 23.2855 61.3228 23.2126 61.146 23.1721C60.9772 23.1316 60.7923 23.1154 60.6075 23.1154H59.5707V27.126H57.4248V17.3223H59.5707V21.2438H60.5352C60.6798 21.2438 60.8486 21.2276 61.0174 21.2033C61.1862 21.1789 61.3549 21.1141 61.5157 21.0088C61.6764 20.9116 61.8211 20.7657 61.9657 20.5794C62.1024 20.393 62.2229 20.1338 62.3113 19.8097L63.0909 17.3628H65.1725L64.2965 20.2067C64.1679 20.6685 63.9911 21.0574 63.766 21.3653C63.541 21.6813 63.2838 21.9 62.9865 22.0216L62.9704 22.0702Z" fill="#161616"/>
<path d="M70.2761 17.2578C70.8628 17.2578 71.3933 17.355 71.8594 17.5495C72.3256 17.7439 72.7274 18.0113 73.0569 18.3435C73.3865 18.6838 73.6436 19.0808 73.8205 19.5508C73.9973 20.0207 74.0857 20.523 74.0857 21.074V23.3831C74.0857 23.9665 73.9973 24.4931 73.8124 24.9631C73.6276 25.433 73.3784 25.8381 73.0409 26.1703C72.7113 26.5025 72.3095 26.7618 71.8433 26.94C71.3772 27.1183 70.8467 27.2074 70.2761 27.2074C69.6412 27.2074 69.0947 27.1021 68.6205 26.8995C68.1543 26.6889 67.7605 26.4134 67.4471 26.065C67.1336 25.7166 66.9006 25.3034 66.7478 24.8415C66.5951 24.3797 66.5148 23.8936 66.5148 23.3831V21.0659C66.5148 20.5554 66.5951 20.0774 66.7478 19.6156C66.9006 19.1537 67.1336 18.7486 67.4471 18.4002C67.7605 18.0518 68.1463 17.7683 68.6205 17.5657C69.0947 17.3631 69.6492 17.2578 70.2761 17.2578ZM70.26 19.2834C69.9868 19.2834 69.7537 19.332 69.5608 19.4211C69.3679 19.5102 69.1992 19.6318 69.0706 19.7776C68.942 19.9316 68.8375 20.1017 68.7732 20.2881C68.7089 20.4825 68.6767 20.677 68.6767 20.8714V23.529C68.6767 23.7477 68.7089 23.9503 68.7732 24.1447C68.8375 24.3392 68.9339 24.5174 69.0706 24.6633C69.1992 24.8172 69.3599 24.9388 69.5608 25.0279C69.7537 25.1251 69.9948 25.1656 70.26 25.1656C70.7824 25.1656 71.1843 25.0117 71.4736 24.6957C71.7549 24.3797 71.8996 23.9908 71.8996 23.5209V20.8633C71.8996 20.4339 71.7549 20.0612 71.4736 19.7452C71.1843 19.4373 70.7824 19.2834 70.26 19.2834Z" fill="#161616"/>
<path d="M81.3833 27.1186V19.2837H78.2086V27.1186H76.0547V17.3311H83.505V27.1186H81.3833Z" fill="#161616"/>
<path d="M85.8921 27.1186V17.3311H88.038V23.4564H88.0862L90.0794 20.3208L92.1128 17.3311H93.889V27.1186H91.735V21.1958H91.6948L90.2723 23.5131L87.8049 27.1186H85.8921Z" fill="#161616"/>
<path d="M103.614 20.474C103.614 20.9116 103.525 21.3248 103.349 21.6975C103.172 22.0702 102.931 22.3943 102.625 22.6698C102.32 22.9452 101.966 23.1559 101.556 23.3098C101.147 23.4638 100.713 23.5448 100.246 23.5448H98.3496V27.1179H96.2037V17.3223H100.206C100.713 17.3223 101.179 17.3952 101.605 17.541C102.023 17.6869 102.384 17.8975 102.682 18.1649C102.979 18.4404 103.212 18.7645 103.373 19.1534C103.534 19.5504 103.614 19.9879 103.614 20.474ZM101.436 20.4335C101.436 20.0365 101.315 19.7448 101.09 19.5504C100.857 19.3559 100.528 19.2668 100.102 19.2668H98.3577V21.6003H100.158C100.512 21.6003 100.817 21.4949 101.066 21.2843C101.307 21.0736 101.436 20.79 101.436 20.4335Z" fill="#161616"/>
<path d="M111.08 27.1179L110.349 25.1166H107.102L106.379 27.1098H104.12L107.89 17.3223H109.577L113.347 27.1098H111.08V27.1179ZM109.32 22.1674L108.749 20.2229H108.693L108.131 22.135L107.769 23.2855H109.682L109.32 22.1674Z" fill="#161616"/>
<path d="M114.761 27.1186V17.3229H116.907V23.4563H116.947L118.941 20.3208L120.982 17.3229H122.758V27.1105H120.612V21.1877H120.572L119.149 23.5049L116.682 27.1024H114.761V27.1186ZM118.796 16.7882C118.394 16.7882 118.064 16.7071 117.791 16.5532C117.518 16.3993 117.309 16.2048 117.14 15.9779C116.979 15.7511 116.859 15.4999 116.779 15.2406C116.698 14.9814 116.642 14.7383 116.618 14.5195H118.016C118.016 14.6168 118.032 14.714 118.064 14.8193C118.097 14.9246 118.145 15.03 118.209 15.1272C118.273 15.2244 118.354 15.3055 118.45 15.3703C118.547 15.4351 118.659 15.4675 118.796 15.4675C118.924 15.4675 119.037 15.4351 119.141 15.3703C119.238 15.3055 119.318 15.2244 119.383 15.1272C119.447 15.03 119.495 14.9246 119.527 14.8193C119.559 14.714 119.575 14.6087 119.575 14.5195H120.974C120.95 14.7383 120.894 14.9733 120.813 15.2406C120.733 15.4999 120.612 15.7511 120.451 15.9779C120.291 16.2048 120.074 16.3993 119.8 16.5532C119.527 16.7152 119.198 16.7882 118.796 16.7882Z" fill="#161616"/>
<path d="M129.011 19.2668V27.1179H126.857V19.2668H124.205V17.3223H131.663V19.2668H129.011Z" fill="#161616"/>
<path d="M133.263 27.1186V17.3311H135.417V23.4564H135.457L137.45 20.3208L139.483 17.3311H141.259V27.1186H139.114V21.1958H139.065L137.643 23.5131L135.175 27.1186H133.263Z" fill="#161616"/>
<path d="M148.903 27.1186V23.1242H145.72V27.1186H143.574V17.3311H145.72V21.2526H148.903V17.3311H151.024V27.1186H148.903Z" fill="#161616"/>
<path d="M155.549 19.2668V27.1179H153.395V17.3223H160.259V19.2668H155.549Z" fill="#161616"/>
<path d="M167.669 27.1186L166.946 25.1254H163.691L162.968 27.1186H160.709L164.478 17.3311H166.166L169.936 27.1186H167.669ZM165.917 22.1681L165.346 20.2236H165.29L164.728 22.1357L164.366 23.2862H166.279L165.917 22.1681Z" fill="#161616"/>
</g>
<defs>
<clipPath id="clip0">
<rect width="170" height="45" fill="white"/>
</clipPath>
</defs>
</svg>
